<?xml version="1.0" standalone="no"?>
<!DOCTYPE svg PUBLIC "-//W3C//DTD SVG 20010904//EN"
 "http://www.w3.org/TR/2001/REC-SVG-20010904/DTD/svg10.dtd">
<svg version="1.0" xmlns="http://www.w3.org/2000/svg"
 width="500.000000pt" height="500.000000pt" viewBox="0 0 500.000000 500.000000"
 preserveAspectRatio="xMidYMid meet">

<g transform="translate(0.000000,500.000000) scale(0.100000,-0.100000)"
fill="#000000" stroke="none">
<path d="M200 2530 l0 -1160 2295 0 2295 0 0 1160 0 1160 -2295 0 -2295 0 0
-1160z m2260 0 l0 -1130 -1115 0 -1115 0 0 1130 0 1130 1115 0 1115 0 0 -1130z
m1594 835 c102 -19 193 -64 265 -131 68 -62 101 -113 129 -199 79 -237 -16
-489 -224 -597 -35 -18 -64 -37 -64 -41 0 -5 81 -161 180 -347 99 -186 180
-341 180 -344 0 -4 -136 -5 -301 -4 l-302 3 -146 302 -146 303 -102 0 -103 0
0 -305 0 -305 -270 0 -270 0 0 840 0 840 549 0 c439 0 565 -3 625 -15z"/>
<path d="M710 2560 l0 -840 270 0 270 0 0 300 0 300 353 2 352 3 0 190 0 190
-353 3 -353 2 3 143 3 142 408 3 407 2 0 200 0 200 -680 0 -680 0 0 -840z"/>
<path d="M3427 2993 c-4 -3 -7 -73 -7 -155 l0 -148 203 0 c235 0 253 5 289 86
40 91 -4 187 -97 213 -43 12 -377 15 -388 4z"/>
</g>
</svg>
